# xmcd
#
# Track frame offsets: 
#        150
#        12371
#        24307
#        34142
#        45154
#        58264
#        68507
#        83954
#        98256
#        106480
#        114820
#        126350
#        131536
#
# Disc length: 2013 seconds
#
# Revision: 0
# Processed by: cddbd v1.5.2PL0 Copyright (c) Steve Scherf et al.
# Submitted via: ExactAudioCopy v0.99pb4
#
DISCID=9907db0d
DTITLE=Mama Rosin - Brule Lentement
DYEAR=2009
DGENRE=Folk/Rock
TTITLE0=Où Est Passé E. C. Lenoir?
TTITLE1=Le Two-Step De L'Haricot
TTITLE2=J'Vas Mon Chemin
TTITLE3=Hony Tonky Tout Le Temps
TTITLE4=La Valse Des Beaux-Frères
TTITLE5=You Stole My Motorcycle
TTITLE6=Les Blues D'Amédé
TTITLE7=Le Pistolet
TTITLE8=When The Police Came
TTITLE9='Ti Monde
TTITLE10=Dead Love Rag
TTITLE11=Johny Dance
TTITLE12=Bon Temps Roulet#2
EXTD=
EXTT0=
EXTT1=
EXTT2=
EXTT3=
EXTT4=
EXTT5=
EXTT6=
EXTT7=
EXTT8=
EXTT9=
EXTT10=
EXTT11=
EXTT12=
PLAYORDER=
